<?xml version="1.0" encoding="UTF-8" standalone="no"?>
<svg
   inkscape:export-ydpi="96"
   inkscape:export-xdpi="96"
   inkscape:export-filename="/Users/richpauloo/Documents/GitHub/wg/assets/media/logo.png"
   inkscape:version="1.1.1 (c3084ef, 2021-09-22)"
   sodipodi:docname="logo.svg"
   id="svg1838"
   version="1.1"
   viewBox="0 0 37.6026 8.018"
   height="30.304001"
   width="142.12199"
   xmlns:inkscape="http://www.inkscape.org/namespaces/inkscape"
   xmlns:sodipodi="http://sodipodi.sourceforge.net/DTD/sodipodi-0.dtd"
   xmlns="http://www.w3.org/2000/svg"
   xmlns:svg="http://www.w3.org/2000/svg">
  <defs
     id="defs1842" />
  <sodipodi:namedview
     id="namedview1840"
     pagecolor="#ffffff"
     bordercolor="#666666"
     borderopacity="1.0"
     inkscape:pageshadow="2"
     inkscape:pageopacity="0.0"
     inkscape:pagecheckerboard="0"
     showgrid="false"
     width="172.12199px"
     inkscape:zoom="3.6203867"
     inkscape:cx="43.08932"
     inkscape:cy="-31.902669"
     inkscape:window-width="1743"
     inkscape:window-height="969"
     inkscape:window-x="1827"
     inkscape:window-y="76"
     inkscape:window-maximized="0"
     inkscape:current-layer="text3788" />
  <g
     style="line-height:1.25"
     id="g1836">
    <g
       aria-label="watergrid"
       transform="scale(1.0214169,0.97903218)"
       id="text2384"
       style="font-size:9.37463px;stroke-width:0.234366">
      <g
         aria-label="popmetrics"
         transform="scale(0.97326958,1.0274646)"
         id="text3788"
         style="font-size:6.83873px;stroke-width:0.0616448">
        <path
           d="m 3.58195,4.0489623 q 0,0.4541344 -0.1302297,0.8314667 Q 3.3214906,5.254422 3.0844057,5.5148815 2.8640169,5.761984 2.5634868,5.8988922 2.2662959,6.0324611 1.9323736,6.0324611 q -0.2905125,0 -0.5275974,-0.063445 Q 1.1710306,5.9055706 0.92726728,5.7720017 V 7.3347583 H 0.29949325 V 2.2290855 H 0.92726728 V 2.6197746 Q 1.177709,2.4094036 1.4882568,2.2691562 1.8021438,2.1255696 2.1561015,2.1255696 q 0.6745232,0 1.0485162,0.5109012 Q 3.58195,3.1440327 3.58195,4.0489623 Z m -0.6478094,0.016696 q 0,-0.6745231 -0.2304064,-1.0084455 -0.2304064,-0.3339223 -0.7079154,-0.3339223 -0.2704771,0 -0.5442934,0.1168728 Q 1.177709,2.9570362 0.92726728,3.147372 v 2.1137285 q 0.26713792,0.120212 0.45747362,0.1636219 0.193675,0.04341 0.4374383,0.04341 0.5242581,0 0.8181098,-0.3539577 0.2938516,-0.3539577 0.2938516,-1.0485162 z"
           id="path21987"
           style="fill:#ffd42a" />
        <path
           d="m 7.7392836,4.0957115 q 0,0.911608 -0.4674913,1.4392053 -0.4674913,0.5275973 -1.2522089,0.5275973 -0.791396,0 -1.2588873,-0.5275973 -0.464152,-0.5275973 -0.464152,-1.4392053 0,-0.9116081 0.464152,-1.4392054 0.4674913,-0.5309365 1.2588873,-0.5309365 0.7847176,0 1.2522089,0.5309365 0.4674913,0.5275973 0.4674913,1.4392054 z m -0.6478094,0 q 0,-0.7246116 -0.283834,-1.07523 -0.283834,-0.3539577 -0.7880568,-0.3539577 -0.5109012,0 -0.7947352,0.3539577 -0.2804948,0.3506184 -0.2804948,1.07523 0,0.7012369 0.283834,1.0652123 0.283834,0.3606361 0.791396,0.3606361 0.5008836,0 0.7847176,-0.3572969 0.2871732,-0.3606361 0.2871732,-1.0685515 z"
           id="path21989"
           style="fill:#ffd42a" />
        <path
           d="m 11.996794,4.0489623 q 0,0.4541344 -0.13023,0.8314667 -0.13023,0.373993 -0.367315,0.6344525 -0.220388,0.2471025 -0.520919,0.3840107 -0.297191,0.1335689 -0.631113,0.1335689 -0.290512,0 -0.5275972,-0.063445 Q 9.5858742,5.9055706 9.3421108,5.7720017 V 7.3347583 H 8.7143368 V 2.2290855 h 0.627774 V 2.6197746 Q 9.5925526,2.4094036 9.9031004,2.2691562 10.216987,2.1255696 10.570945,2.1255696 q 0.674523,0 1.048516,0.5109012 0.377333,0.5075619 0.377333,1.4124915 z m -0.64781,0.016696 q 0,-0.6745231 -0.230406,-1.0084455 -0.230407,-0.3339223 -0.707916,-0.3339223 -0.270477,0 -0.5442931,0.1168728 Q 9.5925526,2.9570362 9.3421108,3.147372 v 2.1137285 q 0.2671379,0.120212 0.4574737,0.1636219 0.1936749,0.04341 0.4374385,0.04341 0.524258,0 0.81811,-0.3539577 0.293851,-0.3539577 0.293851,-1.0485162 z"
           id="path21991"
           style="fill:#ffd42a" />
        <path
           d="M 18.418121,5.9589982 H 17.790347 V 3.835252 q 0,-0.2404241 -0.02337,-0.4641521 -0.02004,-0.2237279 -0.09016,-0.3572969 -0.0768,-0.1435866 -0.220389,-0.2170495 -0.143587,-0.073463 -0.414064,-0.073463 -0.263799,0 -0.527597,0.1335689 -0.263799,0.1302297 -0.527598,0.3339224 0.01002,0.076802 0.0167,0.180318 0.0067,0.1001767 0.0067,0.2003535 V 5.9589982 H 15.382767 V 3.835252 q 0,-0.2471025 -0.02337,-0.4674913 -0.02004,-0.223728 -0.09016,-0.3572969 -0.0768,-0.1435866 -0.220388,-0.2137103 -0.143587,-0.073463 -0.414064,-0.073463 -0.25712,0 -0.51758,0.1268905 -0.25712,0.1268905 -0.51424,0.3239047 V 5.9589982 H 12.975187 V 2.2290855 h 0.627774 v 0.4140637 q 0.293851,-0.2437633 0.584364,-0.3806715 0.293852,-0.1369081 0.624435,-0.1369081 0.380671,0 0.64447,0.1602827 0.267138,0.1602827 0.397367,0.4441167 0.380672,-0.3205654 0.694559,-0.4608128 0.313887,-0.1435866 0.671184,-0.1435866 0.614417,0 0.904929,0.373993 0.293852,0.3706538 0.293852,1.0384985 z"
           style="fill:#e6e6e6"
           id="path21993" />
        <path
           d="m 22.749094,4.1591567 h -2.748181 q 0,0.34394 0.103516,0.6010602 0.103516,0.253781 0.283834,0.417403 0.17364,0.1602827 0.410725,0.2404241 0.240424,0.080141 0.527597,0.080141 0.380671,0 0.764682,-0.1502651 0.38735,-0.1536043 0.550972,-0.3005301 h 0.03339 V 5.731931 q -0.317226,0.1335689 -0.647809,0.223728 -0.330583,0.090159 -0.694559,0.090159 -0.928304,0 -1.449223,-0.5008835 -0.520919,-0.5042228 -0.520919,-1.4291877 0,-0.9149473 0.497545,-1.4525623 0.500883,-0.5376149 1.315654,-0.5376149 0.754664,0 1.16205,0.4407775 0.410724,0.4407775 0.410724,1.2522088 z M 22.138016,3.6783085 q -0.0033,-0.4942051 -0.250441,-0.7646822 -0.243764,-0.2704771 -0.744647,-0.2704771 -0.504223,0 -0.804753,0.2971909 -0.297191,0.2971909 -0.337262,0.7379684 z"
           style="fill:#e6e6e6"
           id="path21995" />
        <path
           d="m 25.637522,5.925606 q -0.176978,0.046749 -0.38735,0.076802 -0.207031,0.030053 -0.370653,0.030053 -0.571008,0 -0.868199,-0.3072085 Q 23.71413,5.418044 23.71413,4.7401816 V 2.7566828 H 23.290048 V 2.2290855 H 23.71413 V 1.1571947 h 0.627774 v 1.0718908 h 1.295618 v 0.5275973 h -1.295618 v 1.6996648 q 0,0.2938517 0.01336,0.4608129 0.01336,0.1636219 0.0935,0.3072085 0.07346,0.133569 0.200353,0.1970142 0.13023,0.060106 0.394029,0.060106 0.153604,0 0.320565,-0.04341 0.166961,-0.046749 0.240424,-0.076802 h 0.03339 z"
           style="fill:#e6e6e6"
           id="path21997" />
        <path
           d="m 28.726303,2.9136263 h -0.03339 q -0.140248,-0.033392 -0.273817,-0.046749 -0.130229,-0.016696 -0.310547,-0.016696 -0.290513,0 -0.56099,0.1302297 -0.270477,0.1268905 -0.520919,0.3305831 V 5.9589982 H 26.398864 V 2.2290855 h 0.627774 v 0.5509719 q 0.373993,-0.3005302 0.657827,-0.4240814 0.287174,-0.1268905 0.584364,-0.1268905 0.163622,0 0.237085,0.010018 0.07346,0.00668 0.220389,0.030053 z"
           style="fill:#e6e6e6"
           id="path21999" />
        <path
           d="M 29.998549,1.6046507 H 29.290633 V 0.95350208 h 0.707916 z m -0.04007,4.3543475 H 29.330704 V 2.2290855 h 0.627774 z"
           style="fill:#e6e6e6"
           id="path22001" />
        <path
           d="m 33.965546,5.7252526 q -0.313887,0.150265 -0.597721,0.2337456 -0.280495,0.083481 -0.597721,0.083481 -0.404046,0 -0.741308,-0.1168728 Q 31.691535,5.8053939 31.451111,5.5649698 31.207347,5.3245457 31.073778,4.9572311 30.940209,4.5899165 30.940209,4.0990507 q 0,-0.9149473 0.500884,-1.4358662 0.504223,-0.5209188 1.329011,-0.5209188 0.320565,0 0.627774,0.090159 0.310548,0.090159 0.567668,0.2203888 v 0.6978977 h -0.03339 q -0.287173,-0.223728 -0.594382,-0.34394 -0.303869,-0.1202121 -0.594382,-0.1202121 -0.534276,0 -0.844823,0.3606362 -0.307209,0.3572969 -0.307209,1.0518554 0,0.6745231 0.30053,1.0384985 0.30387,0.3606362 0.851502,0.3606362 0.190336,0 0.38735,-0.050088 0.197014,-0.050088 0.353958,-0.1302297 0.136908,-0.070124 0.25712,-0.1469259 0.120212,-0.080141 0.190336,-0.1369081 h 0.03339 z"
           style="fill:#e6e6e6"
           id="path22003" />
        <path
           d="m 37.438338,4.8837682 q 0,0.5109012 -0.424082,0.8381451 -0.420742,0.3272439 -1.152032,0.3272439 -0.414064,0 -0.761343,-0.096837 Q 34.756941,5.852143 34.523195,5.7352702 V 5.0306941 h 0.03339 q 0.297191,0.2237279 0.661166,0.3572969 0.363975,0.1302297 0.697898,0.1302297 0.414063,0 0.647809,-0.1335689 0.233746,-0.133569 0.233746,-0.4207422 0,-0.2203888 -0.126891,-0.3339224 -0.12689,-0.1135336 -0.487526,-0.1936749 -0.133569,-0.030053 -0.350619,-0.070124 -0.21371,-0.040071 -0.390689,-0.08682 -0.490866,-0.1302298 -0.697898,-0.3806715 -0.203692,-0.253781 -0.203692,-0.6210956 0,-0.2304064 0.0935,-0.4340991 0.09684,-0.2036926 0.290512,-0.3639754 0.186997,-0.1569435 0.47417,-0.2471025 0.290512,-0.093498 0.647809,-0.093498 0.333923,0 0.674524,0.083481 0.34394,0.080141 0.571007,0.1970142 v 0.671184 H 37.25802 Q 37.017595,2.9136263 36.673655,2.7934143 36.329715,2.669863 35.999132,2.669863 q -0.34394,0 -0.581025,0.1335689 -0.237084,0.1302298 -0.237084,0.3906892 0,0.2304064 0.143586,0.3472792 0.140248,0.1168729 0.454135,0.1903358 0.173639,0.040071 0.387349,0.080141 0.21705,0.040071 0.360637,0.073463 0.437438,0.1001767 0.674523,0.34394 0.237085,0.2471025 0.237085,0.6544878 z"
           style="fill:#e6e6e6"
           id="path22005" />
      </g>
    </g>
  </g>
</svg>
